{
	"asset":{
		"generator":"Khronos glTF Blender I/O v3.6.27",
		"version":"2.0"
	},
	"extensionsUsed":[
		"KHR_materials_specular",
		"KHR_materials_ior"
	],
	"scene":0,
	"scenes":[
		{
			"name":"Scene",
			"nodes":[
				0,
				1,
				2,
				3,
				4,
				5,
				6
			]
		}
	],
	"nodes":[
		{
			"mesh":0,
			"name":"Plane",
			"scale":[
				9.181904792785645,
				4.0168328285217285,
				4.0168328285217285
			],
			"translation":[
				0,
				-1.675350546836853,
				0
			]
		},
		{
			"name":"Empty",
			"rotation":[
				0.70710688829422,
				0,
				0,
				0.7071066498756409
			],
			"translation":[
				0.0017390251159667969,
				0,
				0
			]
		},
		{
			"name":"Empty.001",
			"rotation":[
				0.5,
				0.5,
				-0.5,
				0.5
			]
		},
		{
			"mesh":1,
			"name":"eyes",
			"translation":[
				0,
				1.0385003089904785,
				0
			]
		},
		{
			"mesh":2,
			"name":"NurbsPath",
			"translation":[
				0,
				2.4138782024383545,
				0
			]
		},
		{
			"mesh":3,
			"name":"NurbsPath.001",
			"translation":[
				0,
				2.400574207305908,
				-0.037196770310401917
			]
		},
		{
			"mesh":4,
			"name":"NurbsPath.002",
			"translation":[
				0,
				1.0385003089904785,
				0
			]
		}
	],
	"animations":[
		{
			"channels":[
				{
					"sampler":0,
					"target":{
						"node":3,
						"path":"translation"
					}
				},
				{
					"sampler":1,
					"target":{
						"node":3,
						"path":"rotation"
					}
				}
			],
			"name":"eyesAction",
			"samplers":[
				{
					"input":51,
					"interpolation":"LINEAR",
					"output":52
				},
				{
					"input":51,
					"interpolation":"LINEAR",
					"output":53
				}
			]
		},
		{
			"channels":[
				{
					"sampler":0,
					"target":{
						"node":4,
						"path":"translation"
					}
				},
				{
					"sampler":1,
					"target":{
						"node":4,
						"path":"rotation"
					}
				}
			],
			"name":"NurbsPathAction",
			"samplers":[
				{
					"input":51,
					"interpolation":"LINEAR",
					"output":54
				},
				{
					"input":51,
					"interpolation":"LINEAR",
					"output":55
				}
			]
		},
		{
			"channels":[
				{
					"sampler":0,
					"target":{
						"node":5,
						"path":"translation"
					}
				},
				{
					"sampler":1,
					"target":{
						"node":5,
						"path":"rotation"
					}
				}
			],
			"name":"NurbsPath.001Action",
			"samplers":[
				{
					"input":51,
					"interpolation":"LINEAR",
					"output":56
				},
				{
					"input":51,
					"interpolation":"LINEAR",
					"output":57
				}
			]
		},
		{
			"channels":[
				{
					"sampler":0,
					"target":{
						"node":6,
						"path":"translation"
					}
				},
				{
					"sampler":1,
					"target":{
						"node":6,
						"path":"rotation"
					}
				}
			],
			"name":"NurbsPath.002Action",
			"samplers":[
				{
					"input":51,
					"interpolation":"LINEAR",
					"output":58
				},
				{
					"input":51,
					"interpolation":"LINEAR",
					"output":59
				}
			]
		}
	],
	"materials":[
		{
			"doubleSided":true,
			"name":"Material.002",
			"pbrMetallicRoughness":{
				"baseColorFactor":[
					0.08381505310535431,
					0.6372762322425842,
					1,
					1
				],
				"metallicFactor":0,
				"roughnessFactor":0.5
			}
		},
		{
			"doubleSided":true,
			"name":"eyes",
			"pbrMetallicRoughness":{
				"metallicFactor":0,
				"roughnessFactor":0
			}
		},
		{
			"doubleSided":true,
			"extensions":{
				"KHR_materials_specular":{
					"specularColorFactor":[
						1.7175719810675047,
						1.7175719810675047,
						1.7175719810675047
					]
				},
				"KHR_materials_ior":{
					"ior":1.4500000476837158
				}
			},
			"name":"Material",
			"pbrMetallicRoughness":{
				"baseColorFactor":[
					0,
					0,
					0,
					1
				],
				"metallicFactor":0,
				"roughnessFactor":0.15887850522994995
			}
		},
		{
			"doubleSided":true,
			"name":"yellow skin",
			"pbrMetallicRoughness":{
				"baseColorFactor":[
					1,
					0.8658602237701416,
					0.008356272242963314,
					1
				],
				"metallicFactor":0,
				"roughnessFactor":0.4953271150588989
			}
		},
		{
			"doubleSided":true,
			"name":"beard",
			"pbrMetallicRoughness":{
				"baseColorFactor":[
					0.650005578994751,
					0.3615129292011261,
					0.05948692560195923,
					1
				],
				"metallicFactor":0,
				"roughnessFactor":0.3317756950855255
			}
		},
		{
			"doubleSided":true,
			"extensions":{
				"KHR_materials_specular":{
					"specularColorFactor":[
						1.4737876273890431,
						1.4737876273890431,
						1.4737876273890431
					]
				},
				"KHR_materials_ior":{
					"ior":1.4500000476837158
				}
			},
			"name":"Material.001",
			"pbrMetallicRoughness":{
				"baseColorFactor":[
					0.3613068759441376,
					0.20507878065109253,
					0.054480284452438354,
					1
				],
				"metallicFactor":0,
				"roughnessFactor":0.5046728849411011
			}
		},
		{
			"doubleSided":true,
			"name":"white t-shirt",
			"pbrMetallicRoughness":{
				"baseColorFactor":[
					0.9046614170074463,
					0.9046614170074463,
					0.8879234194755554,
					1
				],
				"metallicFactor":0,
				"roughnessFactor":0.3317756950855255
			}
		},
		{
			"doubleSided":true,
			"name":"pants",
			"pbrMetallicRoughness":{
				"baseColorFactor":[
					0.06756497919559479,
					0.2922937273979187,
					1,
					1
				],
				"metallicFactor":0,
				"roughnessFactor":0.3925233781337738
			}
		},
		{
			"doubleSided":true,
			"name":"shoes",
			"pbrMetallicRoughness":{
				"baseColorFactor":[
					0.21586059033870697,
					0.22322800755500793,
					0.22696588933467865,
					1
				],
				"metallicFactor":0,
				"roughnessFactor":0.4813084006309509
			}
		},
		{
			"doubleSided":true,
			"name":"Material.004",
			"pbrMetallicRoughness":{
				"baseColorFactor":[
					0.033102747052907944,
					0.033102747052907944,
					0.033102747052907944,
					1
				],
				"metallicFactor":0,
				"roughnessFactor":0.84112149477005
			}
		},
		{
			"doubleSided":true,
			"name":"hair",
			"pbrMetallicRoughness":{
				"baseColorFactor":[
					0.02743007056415081,
					0.01202493254095316,
					0.005981537513434887,
					1
				],
				"metallicFactor":0,
				"roughnessFactor":0.5
			}
		}
	],
	"meshes":[
		{
			"name":"Plane",
			"primitives":[
				{
					"attributes":{
						"POSITION":0,
						"NORMAL":1,
						"TEXCOORD_0":2
					},
					"indices":3,
					"material":0
				}
			]
		},
		{
			"name":"Sphere",
			"primitives":[
				{
					"attributes":{
						"POSITION":4,
						"NORMAL":5,
						"TEXCOORD_0":6
					},
					"indices":7,
					"material":1
				},
				{
					"attributes":{
						"POSITION":8,
						"NORMAL":9,
						"TEXCOORD_0":10
					},
					"indices":11,
					"material":2
				},
				{
					"attributes":{
						"POSITION":12,
						"NORMAL":13,
						"TEXCOORD_0":14
					},
					"indices":15,
					"material":3
				},
				{
					"attributes":{
						"POSITION":16,
						"NORMAL":17,
						"TEXCOORD_0":18
					},
					"indices":19,
					"material":4
				},
				{
					"attributes":{
						"POSITION":20,
						"NORMAL":21,
						"TEXCOORD_0":22
					},
					"indices":23,
					"material":5
				},
				{
					"attributes":{
						"POSITION":24,
						"NORMAL":25,
						"TEXCOORD_0":26
					},
					"indices":27,
					"material":6
				},
				{
					"attributes":{
						"POSITION":28,
						"NORMAL":29,
						"TEXCOORD_0":30
					},
					"indices":31,
					"material":7
				},
				{
					"attributes":{
						"POSITION":32,
						"NORMAL":33,
						"TEXCOORD_0":34
					},
					"indices":35,
					"material":8
				},
				{
					"attributes":{
						"POSITION":36,
						"NORMAL":37,
						"TEXCOORD_0":38
					},
					"indices":39,
					"material":9
				}
			]
		},
		{
			"name":"NurbsPath",
			"primitives":[
				{
					"attributes":{
						"POSITION":40,
						"NORMAL":41,
						"TEXCOORD_0":42
					},
					"indices":43,
					"material":10
				}
			]
		},
		{
			"name":"NurbsPath.002",
			"primitives":[
				{
					"attributes":{
						"POSITION":44,
						"NORMAL":45,
						"TEXCOORD_0":46
					},
					"indices":43,
					"material":10
				}
			]
		},
		{
			"name":"NurbsPath.003",
			"primitives":[
				{
					"attributes":{
						"POSITION":47,
						"NORMAL":48,
						"TEXCOORD_0":49
					},
					"indices":50,
					"material":10
				}
			]
		}
	],
	"accessors":[
		{
			"bufferView":0,
			"componentType":5126,
			"count":8,
			"max":[
				1,
				2.1348533630371094,
				1
			],
			"min":[
				-1,
				-0.9694421887397766,
				-1
			],
			"type":"VEC3"
		},
		{
			"bufferView":1,
			"componentType":5126,
			"count":8,
			"type":"VEC3"
		},
		{
			"bufferView":2,
			"componentType":5126,
			"count":8,
			"type":"VEC2"
		},
		{
			"bufferView":3,
			"componentType":5123,
			"count":12,
			"type":"SCALAR"
		},
		{
			"bufferView":4,
			"componentType":5126,
			"count":372,
			"max":[
				0.18650823831558228,
				1.1172116994857788,
				0.3437216579914093
			],
			"min":[
				-0.18650823831558228,
				0.9364649057388306,
				0.17615990340709686
			],
			"type":"VEC3"
		},
		{
			"bufferView":5,
			"componentType":5126,
			"count":372,
			"type":"VEC3"
		},
		{
			"bufferView":6,
			"componentType":5126,
			"count":372,
			"type":"VEC2"
		},
		{
			"bufferView":7,
			"componentType":5123,
			"count":1824,
			"type":"SCALAR"
		},
		{
			"bufferView":8,
			"componentType":5126,
			"count":100,
			"max":[
				0.11494620144367218,
				1.047043800354004,
				0.34966132044792175
			],
			"min":[
				-0.11494620144367218,
				1.0103542804718018,
				0.3437216281890869
			],
			"type":"VEC3"
		},
		{
			"bufferView":9,
			"componentType":5126,
			"count":100,
			"type":"VEC3"
		},
		{
			"bufferView":10,
			"componentType":5126,
			"count":100,
			"type":"VEC2"
		},
		{
			"bufferView":11,
			"componentType":5123,
			"count":288,
			"type":"SCALAR"
		},
		{
			"bufferView":12,
			"componentType":5126,
			"count":445,
			"max":[
				1.0103555917739868,
				1.4130979776382446,
				0.44423380494117737
			],
			"min":[
				-1.0156571865081787,
				-0.12218624353408813,
				-0.22916100919246674
			],
			"type":"VEC3"
		},
		{
			"bufferView":13,
			"componentType":5126,
			"count":445,
			"type":"VEC3"
		},
		{
			"bufferView":14,
			"componentType":5126,
			"count":445,
			"type":"VEC2"
		},
		{
			"bufferView":15,
			"componentType":5123,
			"count":2298,
			"type":"SCALAR"
		},
		{
			"bufferView":16,
			"componentType":5126,
			"count":76,
			"max":[
				0.1932823210954666,
				0.9413807988166809,
				0.49171149730682373
			],
			"min":[
				-0.1932823210954666,
				0.6021571755409241,
				0.16535377502441406
			],
			"type":"VEC3"
		},
		{
			"bufferView":17,
			"componentType":5126,
			"count":76,
			"type":"VEC3"
		},
		{
			"bufferView":18,
			"componentType":5126,
			"count":76,
			"type":"VEC2"
		},
		{
			"bufferView":19,
			"componentType":5123,
			"count":396,
			"type":"SCALAR"
		},
		{
			"bufferView":20,
			"componentType":5126,
			"count":24,
			"max":[
				0.24034231901168823,
				0.9002748727798462,
				0.06649485975503922
			],
			"min":[
				-0.24034231901168823,
				0.8458046913146973,
				0.046478524804115295
			],
			"type":"VEC3"
		},
		{
			"bufferView":21,
			"componentType":5126,
			"count":24,
			"type":"VEC3"
		},
		{
			"bufferView":22,
			"componentType":5126,
			"count":24,
			"type":"VEC2"
		},
		{
			"bufferView":23,
			"componentType":5123,
			"count":96,
			"type":"SCALAR"
		},
		{
			"bufferView":24,
			"componentType":5126,
			"count":290,
			"max":[
				0.5174422264099121,
				0.6248711943626404,
				0.5371509194374084
			],
			"min":[
				-0.5174422264099121,
				-0.22835540771484375,
				-0.3990303874015808
			],
			"type":"VEC3"
		},
		{
			"bufferView":25,
			"componentType":5126,
			"count":290,
			"type":"VEC3"
		},
		{
			"bufferView":26,
			"componentType":5126,
			"count":290,
			"type":"VEC2"
		},
		{
			"bufferView":27,
			"componentType":5123,
			"count":1620,
			"type":"SCALAR"
		},
		{
			"bufferView":28,
			"componentType":5126,
			"count":323,
			"max":[
				0.4116212725639343,
				-0.19850516319274902,
				0.50151526927948
			],
			"min":[
				-0.4116212725639343,
				-1.1952521800994873,
				-0.3508826494216919
			],
			"type":"VEC3"
		},
		{
			"bufferView":29,
			"componentType":5126,
			"count":323,
			"type":"VEC3"
		},
		{
			"bufferView":30,
			"componentType":5126,
			"count":323,
			"type":"VEC2"
		},
		{
			"bufferView":31,
			"componentType":5123,
			"count":1788,
			"type":"SCALAR"
		},
		{
			"bufferView":32,
			"componentType":5126,
			"count":110,
			"max":[
				0.38310280442237854,
				-0.8685541749000549,
				0.437825083732605
			],
			"min":[
				-0.3831028640270233,
				-1.383740782737732,
				-0.20630162954330444
			],
			"type":"VEC3"
		},
		{
			"bufferView":33,
			"componentType":5126,
			"count":110,
			"type":"VEC3"
		},
		{
			"bufferView":34,
			"componentType":5126,
			"count":110,
			"type":"VEC2"
		},
		{
			"bufferView":35,
			"componentType":5123,
			"count":480,
			"type":"SCALAR"
		},
		{
			"bufferView":36,
			"componentType":5126,
			"count":204,
			"max":[
				0.9215766191482544,
				-1.3766534328460693,
				0.9488918781280518
			],
			"min":[
				-0.9345847368240356,
				-2.2887279987335205,
				-0.9072694778442383
			],
			"type":"VEC3"
		},
		{
			"bufferView":37,
			"componentType":5126,
			"count":204,
			"type":"VEC3"
		},
		{
			"bufferView":38,
			"componentType":5126,
			"count":204,
			"type":"VEC2"
		},
		{
			"bufferView":39,
			"componentType":5123,
			"count":1116,
			"type":"SCALAR"
		},
		{
			"bufferView":40,
			"componentType":5126,
			"count":264,
			"max":[
				0.12846465408802032,
				0.014124436303973198,
				-0.029393626376986504
			],
			"min":[
				-3.2647105399519205e-05,
				-0.05467004328966141,
				-0.05143120884895325
			],
			"type":"VEC3"
		},
		{
			"bufferView":41,
			"componentType":5126,
			"count":264,
			"type":"VEC3"
		},
		{
			"bufferView":42,
			"componentType":5126,
			"count":264,
			"type":"VEC2"
		},
		{
			"bufferView":43,
			"componentType":5123,
			"count":1380,
			"type":"SCALAR"
		},
		{
			"bufferView":44,
			"componentType":5126,
			"count":264,
			"max":[
				0.12846465408802032,
				0.014124436303973198,
				-0.029393626376986504
			],
			"min":[
				-3.2647105399519205e-05,
				-0.05467004328966141,
				-0.05143120884895325
			],
			"type":"VEC3"
		},
		{
			"bufferView":45,
			"componentType":5126,
			"count":264,
			"type":"VEC3"
		},
		{
			"bufferView":46,
			"componentType":5126,
			"count":264,
			"type":"VEC2"
		},
		{
			"bufferView":47,
			"componentType":5126,
			"count":1800,
			"max":[
				0.2038559764623642,
				1.0276554822921753,
				0.10070117563009262
			],
			"min":[
				-0.0032439096830785275,
				0.898956835269928,
				-0.14902272820472717
			],
			"type":"VEC3"
		},
		{
			"bufferView":48,
			"componentType":5126,
			"count":1800,
			"type":"VEC3"
		},
		{
			"bufferView":49,
			"componentType":5126,
			"count":1800,
			"type":"VEC2"
		},
		{
			"bufferView":50,
			"componentType":5123,
			"count":9996,
			"type":"SCALAR"
		},
		{
			"bufferView":51,
			"componentType":5126,
			"count":121,
			"max":[
				5
			],
			"min":[
				0
			],
			"type":"SCALAR"
		},
		{
			"bufferView":52,
			"componentType":5126,
			"count":121,
			"type":"VEC3"
		},
		{
			"bufferView":53,
			"componentType":5126,
			"count":121,
			"type":"VEC4"
		},
		{
			"bufferView":54,
			"componentType":5126,
			"count":121,
			"type":"VEC3"
		},
		{
			"bufferView":55,
			"componentType":5126,
			"count":121,
			"type":"VEC4"
		},
		{
			"bufferView":56,
			"componentType":5126,
			"count":121,
			"type":"VEC3"
		},
		{
			"bufferView":57,
			"componentType":5126,
			"count":121,
			"type":"VEC4"
		},
		{
			"bufferView":58,
			"componentType":5126,
			"count":121,
			"type":"VEC3"
		},
		{
			"bufferView":59,
			"componentType":5126,
			"count":121,
			"type":"VEC4"
		}
	],
	"bufferViews":[
		{
			"buffer":0,
			"byteLength":96,
			"byteOffset":0,
			"target":34962
		},
		{
			"buffer":0,
			"byteLength":96,
			"byteOffset":96,
			"target":34962
		},
		{
			"buffer":0,
			"byteLength":64,
			"byteOffset":192,
			"target":34962
		},
		{
			"buffer":0,
			"byteLength":24,
			"byteOffset":256,
			"target":34963
		},
		{
			"buffer":0,
			"byteLength":4464,
			"byteOffset":280,
			"target":34962
		},
		{
			"buffer":0,
			"byteLength":4464,
			"byteOffset":4744,
			"target":34962
		},
		{
			"buffer":0,
			"byteLength":2976,
			"byteOffset":9208,
			"target":34962
		},
		{
			"buffer":0,
			"byteLength":3648,
			"byteOffset":12184,
			"target":34963
		},
		{
			"buffer":0,
			"byteLength":1200,
			"byteOffset":15832,
			"target":34962
		},
		{
			"buffer":0,
			"byteLength":1200,
			"byteOffset":17032,
			"target":34962
		},
		{
			"buffer":0,
			"byteLength":800,
			"byteOffset":18232,
			"target":34962
		},
		{
			"buffer":0,
			"byteLength":576,
			"byteOffset":19032,
			"target":34963
		},
		{
			"buffer":0,
			"byteLength":5340,
			"byteOffset":19608,
			"target":34962
		},
		{
			"buffer":0,
			"byteLength":5340,
			"byteOffset":24948,
			"target":34962
		},
		{
			"buffer":0,
			"byteLength":3560,
			"byteOffset":30288,
			"target":34962
		},
		{
			"buffer":0,
			"byteLength":4596,
			"byteOffset":33848,
			"target":34963
		},
		{
			"buffer":0,
			"byteLength":912,
			"byteOffset":38444,
			"target":34962
		},
		{
			"buffer":0,
			"byteLength":912,
			"byteOffset":39356,
			"target":34962
		},
		{
			"buffer":0,
			"byteLength":608,
			"byteOffset":40268,
			"target":34962
		},
		{
			"buffer":0,
			"byteLength":792,
			"byteOffset":40876,
			"target":34963
		},
		{
			"buffer":0,
			"byteLength":288,
			"byteOffset":41668,
			"target":34962
		},
		{
			"buffer":0,
			"byteLength":288,
			"byteOffset":41956,
			"target":34962
		},
		{
			"buffer":0,
			"byteLength":192,
			"byteOffset":42244,
			"target":34962
		},
		{
			"buffer":0,
			"byteLength":192,
			"byteOffset":42436,
			"target":34963
		},
		{
			"buffer":0,
			"byteLength":3480,
			"byteOffset":42628,
			"target":34962
		},
		{
			"buffer":0,
			"byteLength":3480,
			"byteOffset":46108,
			"target":34962
		},
		{
			"buffer":0,
			"byteLength":2320,
			"byteOffset":49588,
			"target":34962
		},
		{
			"buffer":0,
			"byteLength":3240,
			"byteOffset":51908,
			"target":34963
		},
		{
			"buffer":0,
			"byteLength":3876,
			"byteOffset":55148,
			"target":34962
		},
		{
			"buffer":0,
			"byteLength":3876,
			"byteOffset":59024,
			"target":34962
		},
		{
			"buffer":0,
			"byteLength":2584,
			"byteOffset":62900,
			"target":34962
		},
		{
			"buffer":0,
			"byteLength":3576,
			"byteOffset":65484,
			"target":34963
		},
		{
			"buffer":0,
			"byteLength":1320,
			"byteOffset":69060,
			"target":34962
		},
		{
			"buffer":0,
			"byteLength":1320,
			"byteOffset":70380,
			"target":34962
		},
		{
			"buffer":0,
			"byteLength":880,
			"byteOffset":71700,
			"target":34962
		},
		{
			"buffer":0,
			"byteLength":960,
			"byteOffset":72580,
			"target":34963
		},
		{
			"buffer":0,
			"byteLength":2448,
			"byteOffset":73540,
			"target":34962
		},
		{
			"buffer":0,
			"byteLength":2448,
			"byteOffset":75988,
			"target":34962
		},
		{
			"buffer":0,
			"byteLength":1632,
			"byteOffset":78436,
			"target":34962
		},
		{
			"buffer":0,
			"byteLength":2232,
			"byteOffset":80068,
			"target":34963
		},
		{
			"buffer":0,
			"byteLength":3168,
			"byteOffset":82300,
			"target":34962
		},
		{
			"buffer":0,
			"byteLength":3168,
			"byteOffset":85468,
			"target":34962
		},
		{
			"buffer":0,
			"byteLength":2112,
			"byteOffset":88636,
			"target":34962
		},
		{
			"buffer":0,
			"byteLength":2760,
			"byteOffset":90748,
			"target":34963
		},
		{
			"buffer":0,
			"byteLength":3168,
			"byteOffset":93508,
			"target":34962
		},
		{
			"buffer":0,
			"byteLength":3168,
			"byteOffset":96676,
			"target":34962
		},
		{
			"buffer":0,
			"byteLength":2112,
			"byteOffset":99844,
			"target":34962
		},
		{
			"buffer":0,
			"byteLength":21600,
			"byteOffset":101956,
			"target":34962
		},
		{
			"buffer":0,
			"byteLength":21600,
			"byteOffset":123556,
			"target":34962
		},
		{
			"buffer":0,
			"byteLength":14400,
			"byteOffset":145156,
			"target":34962
		},
		{
			"buffer":0,
			"byteLength":19992,
			"byteOffset":159556,
			"target":34963
		},
		{
			"buffer":0,
			"byteLength":484,
			"byteOffset":179548
		},
		{
			"buffer":0,
			"byteLength":1452,
			"byteOffset":180032
		},
		{
			"buffer":0,
			"byteLength":1936,
			"byteOffset":181484
		},
		{
			"buffer":0,
			"byteLength":1452,
			"byteOffset":183420
		},
		{
			"buffer":0,
			"byteLength":1936,
			"byteOffset":184872
		},
		{
			"buffer":0,
			"byteLength":1452,
			"byteOffset":186808
		},
		{
			"buffer":0,
			"byteLength":1936,
			"byteOffset":188260
		},
		{
			"buffer":0,
			"byteLength":1452,
			"byteOffset":190196
		},
		{
			"buffer":0,
			"byteLength":1936,
			"byteOffset":191648
		}
	],
	"buffers":[
		{
			"byteLength":193584,
			"uri":"Homie.bin"
		}
	]
}
