{
	"asset":{
		"generator":"Khronos glTF Blender I/O v3.6.27",
		"version":"2.0"
	},
	"scene":0,
	"scenes":[
		{
			"name":"Scene",
			"nodes":[
				0,
				1,
				3,
				8
			]
		}
	],
	"nodes":[
		{
			"name":"Empty.001",
			"scale":[
				0.13907083868980408,
				0.13907083868980408,
				0.13907083868980408
			],
			"translation":[
				-0.6774671673774719,
				2.241279125213623,
				0.7533913254737854
			]
		},
		{
			"name":"Empty",
			"rotation":[
				0.7071069478988647,
				0,
				0,
				0.7071066498756409
			],
			"scale":[
				2.702946424484253,
				2.702946424484253,
				2.702946424484253
			],
			"translation":[
				0,
				0,
				-8.932592391967773
			]
		},
		{
			"name":"main"
		},
		{
			"children":[
				2
			],
			"name":"Armature"
		},
		{
			"name":"head",
			"rotation":[
				0.0027001979760825634,
				-0.003488393733277917,
				0.380280464887619,
				0.9248607158660889
			],
			"scale":[
				1,
				1.0000001192092896,
				1
			],
			"translation":[
				-1.6391173573993e-07,
				0.9252477884292603,
				-1.4024976735527162e-09
			]
		},
		{
			"name":"tale",
			"rotation":[
				0.6964206099510193,
				-0.1307288110256195,
				0.6964659094810486,
				0.11332938820123672
			],
			"scale":[
				1.0000001192092896,
				1,
				0.9999999403953552
			],
			"translation":[
				-1.6905065081118664e-07,
				3.6452547647058964e-08,
				-9.313225746154785e-10
			]
		},
		{
			"children":[
				4,
				5
			],
			"name":"body",
			"rotation":[
				-0.004826560616493225,
				-0.003823490347713232,
				0.6200289130210876,
				0.7845548391342163
			],
			"translation":[
				0.007596060633659363,
				-0.0037980079650878906,
				-9.313225746154785e-10
			]
		},
		{
			"mesh":0,
			"name":"Cube",
			"skin":0
		},
		{
			"children":[
				7,
				6
			],
			"name":"Armature.001",
			"translation":[
				0.14812316000461578,
				1.344502329826355,
				0.011394270695745945
			]
		}
	],
	"animations":[
		{
			"channels":[
				{
					"sampler":0,
					"target":{
						"node":6,
						"path":"translation"
					}
				},
				{
					"sampler":1,
					"target":{
						"node":6,
						"path":"rotation"
					}
				},
				{
					"sampler":2,
					"target":{
						"node":6,
						"path":"scale"
					}
				},
				{
					"sampler":3,
					"target":{
						"node":4,
						"path":"translation"
					}
				},
				{
					"sampler":4,
					"target":{
						"node":4,
						"path":"rotation"
					}
				},
				{
					"sampler":5,
					"target":{
						"node":4,
						"path":"scale"
					}
				},
				{
					"sampler":6,
					"target":{
						"node":5,
						"path":"translation"
					}
				},
				{
					"sampler":7,
					"target":{
						"node":5,
						"path":"rotation"
					}
				},
				{
					"sampler":8,
					"target":{
						"node":5,
						"path":"scale"
					}
				}
			],
			"name":"Armature.001Action.001",
			"samplers":[
				{
					"input":9,
					"interpolation":"LINEAR",
					"output":10
				},
				{
					"input":11,
					"interpolation":"STEP",
					"output":12
				},
				{
					"input":11,
					"interpolation":"STEP",
					"output":13
				},
				{
					"input":11,
					"interpolation":"STEP",
					"output":14
				},
				{
					"input":9,
					"interpolation":"LINEAR",
					"output":15
				},
				{
					"input":11,
					"interpolation":"STEP",
					"output":16
				},
				{
					"input":11,
					"interpolation":"STEP",
					"output":17
				},
				{
					"input":9,
					"interpolation":"LINEAR",
					"output":18
				},
				{
					"input":11,
					"interpolation":"STEP",
					"output":19
				}
			]
		},
		{
			"channels":[
				{
					"sampler":0,
					"target":{
						"node":7,
						"path":"weights"
					}
				}
			],
			"name":"KeyAction.001",
			"samplers":[
				{
					"input":20,
					"interpolation":"LINEAR",
					"output":21
				}
			]
		}
	],
	"materials":[
		{
			"doubleSided":true,
			"name":"bee",
			"normalTexture":{
				"index":0
			},
			"pbrMetallicRoughness":{
				"baseColorTexture":{
					"index":1
				},
				"metallicFactor":0,
				"roughnessFactor":0.12272725254297256
			}
		}
	],
	"meshes":[
		{
			"extras":{
				"targetNames":[
					"flaps"
				]
			},
			"name":"Cube",
			"primitives":[
				{
					"attributes":{
						"POSITION":0,
						"NORMAL":1,
						"TEXCOORD_0":2,
						"JOINTS_0":3,
						"WEIGHTS_0":4
					},
					"indices":5,
					"material":0,
					"targets":[
						{
							"POSITION":6,
							"NORMAL":7
						}
					]
				}
			],
			"weights":[
				0
			]
		}
	],
	"textures":[
		{
			"sampler":0,
			"source":0
		},
		{
			"sampler":0,
			"source":0
		}
	],
	"images":[
		{
			"bufferView":6,
			"mimeType":"image/jpeg",
			"name":"pexels-pixabay-34220"
		}
	],
	"skins":[
		{
			"inverseBindMatrices":8,
			"joints":[
				6,
				4,
				5
			],
			"name":"Armature.001"
		},
		{
			"inverseBindMatrices":22,
			"joints":[
				2
			],
			"name":"Armature"
		}
	],
	"accessors":[
		{
			"bufferView":0,
			"componentType":5126,
			"count":1534,
			"max":[
				1.293852686882019,
				2.874166965484619,
				0.9001693725585938
			],
			"min":[
				-1.3165929317474365,
				-0.314909964799881,
				-0.042118750512599945
			],
			"type":"VEC3"
		},
		{
			"bufferView":1,
			"componentType":5126,
			"count":1534,
			"type":"VEC3"
		},
		{
			"bufferView":2,
			"componentType":5126,
			"count":1534,
			"type":"VEC2"
		},
		{
			"bufferView":3,
			"componentType":5121,
			"count":1534,
			"type":"VEC4"
		},
		{
			"bufferView":4,
			"componentType":5126,
			"count":1534,
			"type":"VEC4"
		},
		{
			"bufferView":5,
			"componentType":5123,
			"count":2472,
			"type":"SCALAR"
		},
		{
			"bufferView":7,
			"componentType":5126,
			"count":1534,
			"max":[
				0.5577201843261719,
				0.1394200325012207,
				0.5396109819412231
			],
			"min":[
				-0.29079413414001465,
				-1.8350715637207031,
				-0.14458680152893066
			],
			"type":"VEC3"
		},
		{
			"bufferView":8,
			"componentType":5126,
			"count":1534,
			"type":"VEC3"
		},
		{
			"bufferView":9,
			"componentType":5126,
			"count":3,
			"type":"MAT4"
		},
		{
			"bufferView":10,
			"componentType":5126,
			"count":251,
			"max":[
				10.416666666666666
			],
			"min":[
				0
			],
			"type":"SCALAR"
		},
		{
			"bufferView":11,
			"componentType":5126,
			"count":251,
			"type":"VEC3"
		},
		{
			"bufferView":12,
			"componentType":5126,
			"count":2,
			"max":[
				10.416666666666666
			],
			"min":[
				0
			],
			"type":"SCALAR"
		},
		{
			"bufferView":13,
			"componentType":5126,
			"count":2,
			"type":"VEC4"
		},
		{
			"bufferView":14,
			"componentType":5126,
			"count":2,
			"type":"VEC3"
		},
		{
			"bufferView":15,
			"componentType":5126,
			"count":2,
			"type":"VEC3"
		},
		{
			"bufferView":16,
			"componentType":5126,
			"count":251,
			"type":"VEC4"
		},
		{
			"bufferView":17,
			"componentType":5126,
			"count":2,
			"type":"VEC3"
		},
		{
			"bufferView":18,
			"componentType":5126,
			"count":2,
			"type":"VEC3"
		},
		{
			"bufferView":19,
			"componentType":5126,
			"count":251,
			"type":"VEC4"
		},
		{
			"bufferView":20,
			"componentType":5126,
			"count":2,
			"type":"VEC3"
		},
		{
			"bufferView":21,
			"componentType":5126,
			"count":250,
			"max":[
				10.375
			],
			"min":[
				0
			],
			"type":"SCALAR"
		},
		{
			"bufferView":22,
			"componentType":5126,
			"count":250,
			"type":"SCALAR"
		},
		{
			"bufferView":23,
			"componentType":5126,
			"count":1,
			"type":"MAT4"
		}
	],
	"bufferViews":[
		{
			"buffer":0,
			"byteLength":18408,
			"byteOffset":0,
			"target":34962
		},
		{
			"buffer":0,
			"byteLength":18408,
			"byteOffset":18408,
			"target":34962
		},
		{
			"buffer":0,
			"byteLength":12272,
			"byteOffset":36816,
			"target":34962
		},
		{
			"buffer":0,
			"byteLength":6136,
			"byteOffset":49088,
			"target":34962
		},
		{
			"buffer":0,
			"byteLength":24544,
			"byteOffset":55224,
			"target":34962
		},
		{
			"buffer":0,
			"byteLength":4944,
			"byteOffset":79768,
			"target":34963
		},
		{
			"buffer":0,
			"byteLength":617998,
			"byteOffset":84712
		},
		{
			"buffer":0,
			"byteLength":18408,
			"byteOffset":702712,
			"target":34962
		},
		{
			"buffer":0,
			"byteLength":18408,
			"byteOffset":721120,
			"target":34962
		},
		{
			"buffer":0,
			"byteLength":192,
			"byteOffset":739528
		},
		{
			"buffer":0,
			"byteLength":1004,
			"byteOffset":739720
		},
		{
			"buffer":0,
			"byteLength":3012,
			"byteOffset":740724
		},
		{
			"buffer":0,
			"byteLength":8,
			"byteOffset":743736
		},
		{
			"buffer":0,
			"byteLength":32,
			"byteOffset":743744
		},
		{
			"buffer":0,
			"byteLength":24,
			"byteOffset":743776
		},
		{
			"buffer":0,
			"byteLength":24,
			"byteOffset":743800
		},
		{
			"buffer":0,
			"byteLength":4016,
			"byteOffset":743824
		},
		{
			"buffer":0,
			"byteLength":24,
			"byteOffset":747840
		},
		{
			"buffer":0,
			"byteLength":24,
			"byteOffset":747864
		},
		{
			"buffer":0,
			"byteLength":4016,
			"byteOffset":747888
		},
		{
			"buffer":0,
			"byteLength":24,
			"byteOffset":751904
		},
		{
			"buffer":0,
			"byteLength":1000,
			"byteOffset":751928
		},
		{
			"buffer":0,
			"byteLength":1000,
			"byteOffset":752928
		},
		{
			"buffer":0,
			"byteLength":64,
			"byteOffset":753928
		}
	],
	"samplers":[
		{
			"magFilter":9729,
			"minFilter":9987
		}
	],
	"buffers":[
		{
			"byteLength":753992,
			"uri":"data:application/octet-stream;base64,"
		}
	]
}
